<svg xmlns="http://www.w3.org/2000/svg" viewBox="10.3 -299.7 299.5 299.5" width="24" height="24"><!-- Uicons by Flaticon: fi-rr-play --><path transform="scale(1,-1)" fill="#000000" d="M256 200 137 288Q123 298 105.0 299.5Q87 301 71.5 293.0Q56 285 47.0 270.0Q38 255 38 238V63Q38 45 47.0 30.0Q56 15 72.0 7.0Q88 -1 105.5 0.5Q123 2 137 12L256 100Q268 108 275.0 121.5Q282 135 282.0 150.0Q282 165 275.0 178.5Q268 192 256 200ZM241 120 122 32Q114 26 103.0 25.0Q92 24 83.0 29.0Q74 34 68.5 43.0Q63 52 63 62V238Q62 248 68.0 257.0Q74 266 82.5 270.5Q91 275 100 275Q112 275 122 268L241 180Q249 175 253.0 167.0Q257 159 257.0 150.0Q257 141 253.0 133.0Q249 125 241 120Z"/></svg>
